<svg xmlns="http://www.w3.org/2000/svg" xmlns:xlink="http://www.w3.org/1999/xlink" version="1.1" width="256" height="256" viewBox="0 0 256 256" xml:space="preserve">

<defs>
</defs>
<g style="stroke: none; stroke-width: 0; stroke-dasharray: none; stroke-linecap: butt; stroke-linejoin: miter; stroke-miterlimit: 10; fill: none; fill-rule: nonzero; opacity: 1;" transform="translate(1.4065934065934016 1.4065934065934016) scale(2.81 2.81)" >
	<path d="M 56.301 86.083 H 33.699 c -2.503 0 -4.539 -2.036 -4.539 -4.539 v -0.891 c 0 -2.503 2.036 -4.54 4.539 -4.54 h 6.732 v -5.125 H 5.607 C 2.516 70.987 0 68.472 0 65.38 V 9.525 c 0 -3.092 2.516 -5.608 5.607 -5.608 h 78.785 C 87.484 3.917 90 6.433 90 9.525 V 65.38 c 0 3.092 -2.516 5.607 -5.608 5.607 H 49.569 v 5.125 h 6.732 c 2.503 0 4.539 2.037 4.539 4.54 v 0.891 C 60.841 84.047 58.805 86.083 56.301 86.083 z M 33.699 79.078 c -0.867 0 -1.572 0.706 -1.572 1.573 v 0.891 c 0 0.867 0.706 1.572 1.572 1.572 h 22.602 c 0.867 0 1.572 -0.705 1.572 -1.572 v -0.891 c 0 -0.867 -0.705 -1.573 -1.572 -1.573 h -9.699 V 68.02 h 37.79 c 1.456 0 2.641 -1.184 2.641 -2.64 V 9.525 c 0 -1.456 -1.184 -2.641 -2.641 -2.641 H 5.607 c -1.456 0 -2.64 1.185 -2.64 2.641 V 65.38 c 0 1.456 1.184 2.64 2.64 2.64 h 37.791 v 11.059 H 33.699 z" style="stroke: none; stroke-width: 1; stroke-dasharray: none; stroke-linecap: butt; stroke-linejoin: miter; stroke-miterlimit: 10; fill: rgb(0,0,0); fill-rule: nonzero; opacity: 1;" transform=" matrix(1 0 0 1 0 0) " stroke-linecap="round" />
	<path d="M 79.755 65.227 H 10.244 c -1.762 0 -3.194 -1.433 -3.194 -3.194 V 13.469 c 0 -1.762 1.433 -3.195 3.194 -3.195 h 69.511 c 1.762 0 3.195 1.433 3.195 3.195 v 48.565 C 82.95 63.794 81.517 65.227 79.755 65.227 z M 10.244 13.241 c -0.121 0 -0.227 0.107 -0.227 0.228 v 48.565 c 0 0.121 0.106 0.227 0.227 0.227 h 69.511 c 0.122 0 0.228 -0.106 0.228 -0.227 V 13.469 c 0 -0.121 -0.106 -0.228 -0.228 -0.228 H 10.244 z" style="stroke: none; stroke-width: 1; stroke-dasharray: none; stroke-linecap: butt; stroke-linejoin: miter; stroke-miterlimit: 10; fill: rgb(0,0,0); fill-rule: nonzero; opacity: 1;" transform=" matrix(1 0 0 1 0 0) " stroke-linecap="round" />
</g>
</svg>