<svg xmlns="http://www.w3.org/2000/svg" xmlns:xlink="http://www.w3.org/1999/xlink" version="1.1" width="256" height="256" viewBox="0 0 256 256" xml:space="preserve">

<defs>
</defs>
<g style="stroke: none; stroke-width: 0; stroke-dasharray: none; stroke-linecap: butt; stroke-linejoin: miter; stroke-miterlimit: 10; fill: none; fill-rule: nonzero; opacity: 1;" transform="translate(1.4065934065934016 1.4065934065934016) scale(2.81 2.81)" >
	<path d="M 83.974 86.678 H 6.026 C 3.25 86.678 1 84.428 1 81.652 v -0.909 h 88 v 0.909 C 89 84.428 86.75 86.678 83.974 86.678 z" style="stroke: none; stroke-width: 1; stroke-dasharray: none; stroke-linecap: butt; stroke-linejoin: miter; stroke-miterlimit: 10; fill: rgb(238,240,245); fill-rule: nonzero; opacity: 1;" transform=" matrix(1 0 0 1 0 0) " stroke-linecap="round" />
	<path d="M 79.004 29.322 c 2.936 0 5.317 2.381 5.317 5.317 v 46.104 H 5.679 V 34.639 c 0 -2.936 2.381 -5.317 5.317 -5.317 H 79.004 z" style="stroke: none; stroke-width: 1; stroke-dasharray: none; stroke-linecap: butt; stroke-linejoin: miter; stroke-miterlimit: 10; fill: rgb(238,240,245); fill-rule: nonzero; opacity: 1;" transform=" matrix(1 0 0 1 0 0) " stroke-linecap="round" />
	<path d="M 78.888 74.743 V 36.965 c 0 -1.019 -0.826 -1.846 -1.846 -1.846 H 52.068 H 37.932 H 12.958 c -1.02 0 -1.846 0.826 -1.846 1.846 v 37.778 v 6 h 67.776 V 74.743 z" style="stroke: none; stroke-width: 1; stroke-dasharray: none; stroke-linecap: butt; stroke-linejoin: miter; stroke-miterlimit: 10; fill: rgb(179,218,254); fill-rule: nonzero; opacity: 1;" transform=" matrix(1 0 0 1 0 0) " stroke-linecap="round" />
	<rect x="40.16" y="80.74" rx="0" ry="0" width="9.67" height="5.93" style="stroke: none; stroke-width: 1; stroke-dasharray: none; stroke-linecap: butt; stroke-linejoin: miter; stroke-miterlimit: 10; fill: rgb(215,216,219); fill-rule: nonzero; opacity: 1;" transform=" matrix(1 0 0 1 0 0) "/>
	<path d="M 89 79.911 h -3.679 V 34.807 c 0 -3.483 -2.834 -6.317 -6.317 -6.317 H 64.9 c -0.553 0 -1 0.448 -1 1 s 0.447 1 1 1 h 14.104 c 2.381 0 4.317 1.937 4.317 4.317 v 45.104 H 50.836 H 39.164 H 6.679 V 34.807 c 0 -2.38 1.937 -4.317 4.317 -4.317 h 18.657 c 0.552 0 1 -0.448 1 -1 s -0.448 -1 -1 -1 H 10.996 c -3.483 0 -6.317 2.834 -6.317 6.317 v 45.104 H 1 c -0.552 0 -1 0.447 -1 1 v 0.908 c 0 3.323 2.703 6.026 6.026 6.026 h 33.138 h 11.672 h 33.138 c 3.323 0 6.026 -2.703 6.026 -6.026 v -0.908 C 90 80.358 89.553 79.911 89 79.911 z M 6.026 85.846 c -2.189 0 -3.976 -1.757 -4.025 -3.935 h 2.678 h 34.485 v 3.935 H 6.026 z M 41.164 85.846 v -3.935 h 7.672 v 3.935 H 41.164 z M 83.974 85.846 H 50.836 v -3.935 h 34.485 h 2.678 C 87.95 84.089 86.163 85.846 83.974 85.846 z" style="stroke: none; stroke-width: 1; stroke-dasharray: none; stroke-linecap: butt; stroke-linejoin: miter; stroke-miterlimit: 10; fill: rgb(7,42,56); fill-rule: nonzero; opacity: 1;" transform=" matrix(1 0 0 1 0 0) " stroke-linecap="round" />
	<path d="M 78.888 75.911 c -0.553 0 -1 -0.447 -1 -1 V 37.133 c 0 -0.467 -0.379 -0.846 -0.846 -0.846 h -13.7 c -0.553 0 -1 -0.448 -1 -1 s 0.447 -1 1 -1 h 13.7 c 1.569 0 2.846 1.277 2.846 2.846 v 37.778 C 79.888 75.464 79.44 75.911 78.888 75.911 z" style="stroke: none; stroke-width: 1; stroke-dasharray: none; stroke-linecap: butt; stroke-linejoin: miter; stroke-miterlimit: 10; fill: rgb(7,42,56); fill-rule: nonzero; opacity: 1;" transform=" matrix(1 0 0 1 0 0) " stroke-linecap="round" />
	<path d="M 11.112 75.911 c -0.552 0 -1 -0.447 -1 -1 V 37.133 c 0 -1.569 1.277 -2.846 2.846 -2.846 h 18.473 c 0.552 0 1 0.448 1 1 s -0.448 1 -1 1 H 12.958 c -0.467 0 -0.846 0.379 -0.846 0.846 v 37.778 C 12.112 75.464 11.664 75.911 11.112 75.911 z" style="stroke: none; stroke-width: 1; stroke-dasharray: none; stroke-linecap: butt; stroke-linejoin: miter; stroke-miterlimit: 10; fill: rgb(7,42,56); fill-rule: nonzero; opacity: 1;" transform=" matrix(1 0 0 1 0 0) " stroke-linecap="round" />
	<path d="M 8.908 23.447 c 6.946 -0.77 13.943 -1.312 20.993 -1.627 l 7.894 -0.256 c 2.139 -0.044 4.719 0.008 6.868 0.006 h 6.963 c 3.488 0.056 5.321 0.136 8.834 0.3 c 6.831 0.32 13.708 0.846 20.632 1.577 c 1.889 0 3.42 -3.446 3.42 -7.697 s -1.531 -7.697 -3.42 -7.697 c -6.937 0.691 -13.816 1.188 -20.638 1.492 L 34.486 9.762 C 25.864 9.515 17.338 8.945 8.908 8.053 V 23.447 z" style="stroke: none; stroke-width: 1; stroke-dasharray: none; stroke-linecap: butt; stroke-linejoin: miter; stroke-miterlimit: 10; fill: rgb(249,208,112); fill-rule: nonzero; opacity: 1;" transform=" matrix(1 0 0 1 0 0) " stroke-linecap="round" />
	<path d="M 60.46 21.871 v 1.623 c 0 3.204 -1.176 6.147 -3.118 8.418 l -0.001 -0.001 v 35.006 H 37.49 V 31.761 l 0 0 L 30.888 23.6 c -0.768 -0.949 -1.201 -2.058 -1.316 -3.185 c -0.291 -2.841 3.395 -4.286 5.291 -2.151 l 2.411 2.715 L 60.46 21.871 z" style="stroke: none; stroke-width: 1; stroke-dasharray: none; stroke-linecap: butt; stroke-linejoin: miter; stroke-miterlimit: 10; fill: rgb(236,190,155); fill-rule: nonzero; opacity: 1;" transform=" matrix(1 0 0 1 0 0) " stroke-linecap="round" />
	<ellipse cx="8.91" cy="15.747" rx="3.42" ry="7.697" style="stroke: none; stroke-width: 1; stroke-dasharray: none; stroke-linecap: butt; stroke-linejoin: miter; stroke-miterlimit: 10; fill: rgb(211,167,98); fill-rule: nonzero; opacity: 1;" transform=" matrix(1 0 0 1 0 0) "/>
	<path d="M 51.32 13.217 c 0.416 4.429 0.286 11.772 -0.911 15.707 l -2.631 -3.918 l -4.226 3.273 c 1.06 -3.202 1.11 -10.044 0.674 -15.063 H 51.32 z" style="stroke: none; stroke-width: 1; stroke-dasharray: none; stroke-linecap: butt; stroke-linejoin: miter; stroke-miterlimit: 10; fill: rgb(240,114,129); fill-rule: nonzero; opacity: 1;" transform=" matrix(1 0 0 1 0 0) " stroke-linecap="round" />
	<path d="M 60.46 8.74 c 0 -1.703 -1.393 -3.097 -3.097 -3.097 h -0.3 c -1.703 0 -3.097 1.393 -3.097 3.097 v 1.882 c 0 1.703 1.393 3.097 3.097 3.097 h 0.3 c 1.703 0 3.097 -1.393 3.097 -3.097 V 8.74 z" style="stroke: none; stroke-width: 1; stroke-dasharray: none; stroke-linecap: butt; stroke-linejoin: miter; stroke-miterlimit: 10; fill: rgb(236,190,155); fill-rule: nonzero; opacity: 1;" transform=" matrix(1 0 0 1 0 0) " stroke-linecap="round" />
	<path d="M 53.966 6.251 c 0 -1.703 -1.393 -3.097 -3.097 -3.097 h -0.3 c -1.703 0 -3.097 1.393 -3.097 3.097 v 4.371 c 0 1.703 1.393 3.097 3.097 3.097 h 0.3 c 1.703 0 3.097 -1.393 3.097 -3.097 V 6.251 z" style="stroke: none; stroke-width: 1; stroke-dasharray: none; stroke-linecap: butt; stroke-linejoin: miter; stroke-miterlimit: 10; fill: rgb(236,190,155); fill-rule: nonzero; opacity: 1;" transform=" matrix(1 0 0 1 0 0) " stroke-linecap="round" />
	<path d="M 47.473 6.251 c 0 -1.703 -1.393 -3.097 -3.097 -3.097 h -0.3 c -1.703 0 -3.097 1.393 -3.097 3.097 v 4.371 c 0 1.703 1.393 3.097 3.097 3.097 h 0.3 c 1.703 0 3.097 -1.393 3.097 -3.097 V 6.251 z" style="stroke: none; stroke-width: 1; stroke-dasharray: none; stroke-linecap: butt; stroke-linejoin: miter; stroke-miterlimit: 10; fill: rgb(236,190,155); fill-rule: nonzero; opacity: 1;" transform=" matrix(1 0 0 1 0 0) " stroke-linecap="round" />
	<path d="M 40.979 7.495 c 0 -1.703 -1.393 -3.097 -3.097 -3.097 h -0.3 c -1.703 0 -3.097 1.393 -3.097 3.097 v 3.126 c 0 1.703 1.393 3.097 3.097 3.097 h 0.3 c 1.703 0 3.097 -1.393 3.097 -3.097 V 7.495 z" style="stroke: none; stroke-width: 1; stroke-dasharray: none; stroke-linecap: butt; stroke-linejoin: miter; stroke-miterlimit: 10; fill: rgb(236,190,155); fill-rule: nonzero; opacity: 1;" transform=" matrix(1 0 0 1 0 0) " stroke-linecap="round" />
	<path d="M 44.541 22.57 c -0.728 0 -1.501 -0.005 -2.289 -0.011 c -1.506 -0.011 -3.064 -0.024 -4.437 0.005 l -0.041 -2 c 1.392 -0.027 2.967 -0.017 4.493 -0.005 c 0.827 0.006 1.646 0.013 2.395 0.011 l 0.002 2 C 44.623 22.57 44.582 22.57 44.541 22.57 z" style="stroke: none; stroke-width: 1; stroke-dasharray: none; stroke-linecap: butt; stroke-linejoin: miter; stroke-miterlimit: 10; fill: rgb(7,42,56); fill-rule: nonzero; opacity: 1;" transform=" matrix(1 0 0 1 0 0) " stroke-linecap="round" />
	<path d="M 81.093 7.053 v 1 l -0.099 -0.995 c -6.542 0.652 -13.114 1.13 -19.559 1.436 c -0.13 -2.142 -1.897 -3.85 -4.072 -3.85 h -0.3 c -0.818 0 -1.577 0.247 -2.218 0.662 c -0.43 -1.802 -2.044 -3.151 -3.976 -3.151 h -0.301 c -1.243 0 -2.345 0.568 -3.097 1.445 c -0.752 -0.877 -1.854 -1.445 -3.097 -1.445 h -0.3 c -1.568 0 -2.916 0.895 -3.605 2.192 c -0.708 -0.583 -1.602 -0.948 -2.588 -0.948 h -0.3 c -2.259 0 -4.097 1.838 -4.097 4.097 v 1.228 C 25.271 8.462 17.043 7.908 9.013 7.058 l 0 0.004 c -0.035 -0.001 -0.069 -0.01 -0.105 -0.01 c -2.52 0 -4.419 3.739 -4.419 8.697 s 1.9 8.697 4.419 8.697 c 0.037 0 0.073 -0.009 0.11 -0.01 l 0 0.004 c 6.67 -0.74 13.476 -1.269 20.241 -1.585 c 0.234 0.483 0.509 0.948 0.852 1.372 l 6.379 7.887 v 33.802 H 19.841 c -0.552 0 -1 0.447 -1 1 s 0.448 1 1 1 h 50.318 c 0.553 0 1 -0.447 1 -1 s -0.447 -1 -1 -1 H 58.342 V 32.273 c 2.014 -2.486 3.118 -5.589 3.118 -8.78 v -0.567 c 6.44 0.322 13.001 0.827 19.528 1.515 l 0.104 -0.995 v 1 c 2.52 0 4.419 -3.739 4.419 -8.697 S 83.612 7.053 81.093 7.053 z M 57.063 6.644 h 0.3 c 1.156 0 2.097 0.94 2.097 2.097 v 1.881 c 0 1.156 -0.94 2.097 -2.097 2.097 h -0.3 c -1.156 0 -2.097 -0.94 -2.097 -2.097 V 8.74 C 54.967 7.584 55.907 6.644 57.063 6.644 z M 50.569 4.154 h 0.301 c 1.156 0 2.097 0.94 2.097 2.097 V 8.74 v 1.881 c 0 1.156 -0.94 2.097 -2.097 2.097 h -0.301 c -1.156 0 -2.097 -0.94 -2.097 -2.097 V 6.251 C 48.473 5.095 49.413 4.154 50.569 4.154 z M 41.979 6.251 c 0 -1.156 0.94 -2.097 2.096 -2.097 h 0.3 c 1.156 0 2.097 0.94 2.097 2.097 v 4.371 c 0 1.156 -0.94 2.097 -2.097 2.097 h -0.3 c -1.156 0 -2.096 -0.94 -2.096 -2.097 V 7.496 V 6.251 z M 35.486 7.496 c 0 -1.156 0.94 -2.097 2.097 -2.097 h 0.3 c 1.156 0 2.097 0.94 2.097 2.097 v 3.126 c 0 1.156 -0.94 2.097 -2.097 2.097 h -0.3 c -1.156 0 -2.097 -0.94 -2.097 -2.097 V 7.496 z M 6.488 15.75 c 0 -4.063 1.415 -6.663 2.401 -6.694 C 8.92 9.059 8.951 9.061 8.982 9.065 c 0.982 0.124 2.345 2.697 2.345 6.685 c 0 3.96 -1.344 6.525 -2.324 6.682 c -0.038 0.004 -0.077 0.008 -0.116 0.012 C 7.901 22.409 6.488 19.81 6.488 15.75 z M 81.112 22.444 c -6.889 -0.725 -13.821 -1.255 -20.605 -1.573 c -3.128 -0.146 -4.935 -0.227 -7.841 -0.283 c 0.05 -1.421 0.029 -2.848 -0.081 -4.276 c -0.042 -0.55 -0.528 -0.96 -1.073 -0.92 c -0.551 0.042 -0.963 0.523 -0.921 1.074 c 0.259 3.362 0.048 6.717 -0.625 10.003 l -1.356 -2.02 c -0.154 -0.23 -0.397 -0.385 -0.671 -0.43 c -0.272 -0.043 -0.552 0.027 -0.771 0.197 l -1.92 1.487 c 0.455 -2.417 0.541 -4.984 0.252 -7.667 c -0.059 -0.549 -0.556 -0.946 -1.101 -0.888 c -0.549 0.059 -0.947 0.552 -0.888 1.101 c 0.375 3.495 0.069 6.764 -0.907 9.717 c -0.138 0.417 0.013 0.876 0.372 1.13 c 0.358 0.253 0.841 0.245 1.19 -0.026 l 3.38 -2.618 l 2.034 3.029 c 0.188 0.279 0.5 0.442 0.83 0.442 c 0.054 0 0.108 -0.004 0.163 -0.013 c 0.387 -0.064 0.7 -0.348 0.802 -0.726 c 0.587 -2.17 0.976 -4.375 1.172 -6.598 c 2.614 0.05 4.345 0.119 6.914 0.238 v 0.668 c 0 2.839 -1.022 5.598 -2.878 7.768 c -0.155 0.181 -0.24 0.412 -0.24 0.65 v 34.005 H 38.49 V 31.761 c 0 -0.229 -0.079 -0.451 -0.223 -0.629 l -6.602 -8.162 c -0.62 -0.766 -1 -1.685 -1.099 -2.658 c -0.126 -1.229 0.837 -1.752 1.135 -1.883 c 0.654 -0.287 1.678 -0.33 2.413 0.498 l 5.266 5.93 c 0.366 0.414 0.999 0.451 1.412 0.083 c 0.413 -0.367 0.45 -0.999 0.083 -1.412 l -5.266 -5.93 c -1.173 -1.321 -3.068 -1.725 -4.713 -1 c -1.582 0.695 -2.492 2.233 -2.319 3.917 c 0.013 0.125 0.046 0.246 0.065 0.37 c -5.568 0.269 -11.155 0.688 -16.676 1.243 c 0.845 -1.564 1.361 -3.804 1.361 -6.379 c 0 -2.587 -0.52 -4.835 -1.373 -6.4 c 7.1 0.681 14.322 1.148 21.542 1.375 c 0.056 2.21 1.863 3.993 4.086 3.993 h 0.3 c 1.243 0 2.345 -0.568 3.097 -1.445 c 0.752 0.877 1.853 1.445 3.096 1.445 h 0.3 c 1.243 0 2.345 -0.568 3.097 -1.445 c 0.752 0.877 1.854 1.445 3.097 1.445 h 0.301 c 1.243 0 2.345 -0.568 3.097 -1.445 c 0.752 0.877 1.854 1.445 3.097 1.445 h 0.3 c 2.259 0 4.097 -1.838 4.097 -4.097 v -0.127 c 6.475 -0.306 13.078 -0.786 19.65 -1.439 c 0.986 0.029 2.402 2.629 2.402 6.695 C 83.512 19.813 82.097 22.412 81.112 22.444 z" style="stroke: none; stroke-width: 1; stroke-dasharray: none; stroke-linecap: butt; stroke-linejoin: miter; stroke-miterlimit: 10; fill: rgb(7,42,56); fill-rule: nonzero; opacity: 1;" transform=" matrix(1 0 0 1 0 0) " stroke-linecap="round" />
</g>
</svg>